# xmcd
#
# Track frame offsets:
#	150
#	13051
#	30125
#	42559
#	59521
#	72575
#	87474
#	100594
#	116986
#	127955
#
# Disc length: 1900 seconds
#
# Revision: 0
# Processed by: cddbd v1.4PL0 Copyright (c) Steve Scherf et al.
# Submitted via: EasyCDDAExtractor 4.6.9.1
#
DISCID=87076a0a
DTITLE=Alan Jackson - Don't Rock The Jukebox
DYEAR=1991
DGENRE=Country
TTITLE0=Don't Rock The Jukebox
TTITLE1=That's All I Need To Know
TTITLE2=Dallas
TTITLE3=Midnight In Montgomery
TTITLE4=Love's Got A Hold On You
TTITLE5=Someday
TTITLE6=Just Playin' Possum
TTITLE7=From A Distance
TTITLE8=Walkin' The Floor Over Me
TTITLE9=Working Class Hero
EXTD=
EXTT0=
EXTT1=
EXTT2=
EXTT3=
EXTT4=
EXTT5=
EXTT6=
EXTT7=
EXTT8=
EXTT9=
PLAYORDER=
